<?xml version="1.0" standalone="no"?>
<!DOCTYPE svg PUBLIC "-//W3C//DTD SVG 20010904//EN"
 "http://www.w3.org/TR/2001/REC-SVG-20010904/DTD/svg10.dtd">
<svg version="1.0" xmlns="http://www.w3.org/2000/svg"
 width="700.000000pt" height="700.000000pt" viewBox="0 0 700.000000 700.000000"
 preserveAspectRatio="xMidYMid meet">
<metadata>
Created by potrace 1.14, written by Peter Selinger 2001-2017
</metadata>
<g transform="translate(0.000000,700.000000) scale(0.100000,-0.100000)"
fill="#000000" stroke="none">
<path d="M3378 6415 c-2 -1 -46 -5 -98 -8 -103 -6 -274 -30 -385 -53 -556
-120 -1048 -387 -1450 -789 -186 -185 -275 -297 -444 -560 -57 -87 -186 -357
-234 -488 -74 -199 -133 -434 -153 -600 -4 -28 -8 -54 -9 -57 -8 -13 -19 -227
-19 -360 0 -225 11 -345 50 -545 110 -577 382 -1093 794 -1505 147 -147 162
-161 300 -266 223 -171 442 -295 702 -398 120 -47 355 -120 424 -130 22 -4 55
-11 74 -16 117 -30 349 -53 555 -54 252 0 453 21 665 70 36 9 74 17 85 20 50
10 260 81 360 121 168 68 364 172 416 221 120 111 122 298 4 416 -54 55 -116
79 -201 80 -70 0 -75 -1 -245 -86 -175 -86 -342 -151 -487 -187 -213 -54 -357
-72 -572 -73 -509 -1 -984 153 -1389 451 -171 126 -295 246 -470 457 -40 47
-173 256 -220 344 -136 258 -226 568 -256 885 -6 60 -7 362 -1 390 2 11 7 54
11 95 4 41 9 77 10 80 2 3 6 26 10 50 3 25 11 63 17 85 5 22 12 49 14 59 23
121 120 373 201 526 360 676 1019 1130 1778 1225 118 15 428 22 480 11 11 -2
54 -7 95 -11 41 -4 78 -9 81 -11 3 -2 24 -6 45 -9 49 -6 223 -48 289 -70 443
-145 826 -408 1110 -760 213 -265 382 -604 451 -905 17 -76 35 -164 39 -196 3
-21 7 -52 10 -69 13 -85 18 -239 18 -510 -1 -287 -2 -303 -23 -360 -55 -143
-146 -233 -285 -280 -105 -35 -272 -14 -354 45 -16 11 -31 20 -34 20 -11 0
-75 68 -103 111 -40 58 -63 117 -70 181 -3 29 -7 190 -9 358 -3 296 -9 368
-41 494 -31 119 -45 158 -103 279 -183 386 -538 676 -956 781 -224 56 -483 56
-710 0 -496 -123 -898 -510 -1046 -1006 -8 -29 -16 -61 -35 -154 -15 -75 -21
-165 -19 -288 12 -653 462 -1218 1100 -1380 63 -16 85 -20 195 -35 67 -9 316
-7 360 4 14 3 43 8 64 10 21 3 42 8 46 10 4 2 21 7 38 10 71 12 223 70 322
122 124 65 231 140 317 222 l62 59 55 -67 c145 -180 353 -308 580 -357 93 -21
286 -25 378 -8 448 79 788 432 846 878 9 68 8 742 -1 821 -23 200 -41 302 -82
467 -173 689 -608 1303 -1211 1706 -400 268 -856 429 -1354 477 -65 7 -377 15
-382 10z m307 -2060 c243 -53 461 -216 582 -435 27 -48 96 -226 93 -240 0 -3
2 -27 5 -55 42 -338 -91 -645 -365 -842 -254 -183 -626 -208 -900 -60 -374
201 -554 614 -441 1015 74 263 283 489 537 581 69 25 158 45 244 54 53 5 178
-4 245 -18z"/>
</g>
</svg>
